<svg xmlns="http://www.w3.org/2000/svg" fill="none" viewBox="0.78 0 72.62 72.27">
<mask id="mask0_11_18" style="mask-type:alpha" maskUnits="userSpaceOnUse" x="0" y="0" width="74" height="73">
<rect x="0.775208" y="1.52588e-05" width="72.6225" height="72.2715" fill="black"/>
</mask>
<g mask="url(#mask0_11_18)">
<rect x="0.775208" y="1.52588e-05" width="72.6225" height="72.2715" fill="black"/>
<path d="M16.4432 53.5079V72.2715H13.0166L4.85334 60.4618H4.71591V72.2715H0.748793V53.5079H4.23033L12.3295 65.3084H12.4944V53.5079H16.4432ZM36.9636 62.8897C36.9636 64.9359 36.5758 66.6766 35.8001 68.112C35.0305 69.5474 33.9799 70.6437 32.6483 71.4011C31.3229 72.1524 29.8326 72.528 28.1773 72.528C26.5099 72.528 25.0134 72.1494 23.688 71.392C22.3626 70.6346 21.315 69.5382 20.5454 68.1028C19.7758 66.6675 19.391 64.9298 19.391 62.8897C19.391 60.8435 19.7758 59.1028 20.5454 57.6674C21.315 56.232 22.3626 55.1387 23.688 54.3874C25.0134 53.63 26.5099 53.2513 28.1773 53.2513C29.8326 53.2513 31.3229 53.63 32.6483 54.3874C33.9799 55.1387 35.0305 56.232 35.8001 57.6674C36.5758 59.1028 36.9636 60.8435 36.9636 62.8897ZM32.9415 62.8897C32.9415 61.5643 32.743 60.4465 32.346 59.5364C31.9551 58.6263 31.4023 57.9361 30.6877 57.4658C29.9731 56.9955 29.1363 56.7604 28.1773 56.7604C27.2184 56.7604 26.3816 56.9955 25.667 57.4658C24.9523 57.9361 24.3965 58.6263 23.9995 59.5364C23.6086 60.4465 23.4131 61.5643 23.4131 62.8897C23.4131 64.2151 23.6086 65.3329 23.9995 66.243C24.3965 67.153 24.9523 67.8432 25.667 68.3136C26.3816 68.7839 27.2184 69.019 28.1773 69.019C29.1363 69.019 29.9731 68.7839 30.6877 68.3136C31.4023 67.8432 31.9551 67.153 32.346 66.243C32.743 65.3329 32.9415 64.2151 32.9415 62.8897ZM38.331 56.7787V53.5079H53.7414V56.7787H47.9969V72.2715H44.0756V56.7787H38.331ZM55.5646 56.7787V53.5079H70.975V56.7787H65.2305V72.2715H61.3092V56.7787H55.5646Z" fill="white"/>
<path d="M44.4331 48.0122H42.8777C42.8493 47.811 42.7913 47.6323 42.7037 47.476C42.6161 47.3174 42.5036 47.1824 42.3663 47.0712C42.229 46.9599 42.0704 46.8747 41.8905 46.8155C41.7129 46.7563 41.52 46.7267 41.3117 46.7267C40.9352 46.7267 40.6073 46.8202 40.328 47.0073C40.0486 47.1919 39.832 47.4618 39.6781 47.8169C39.5242 48.1697 39.4473 48.5982 39.4473 49.1024C39.4473 49.6209 39.5242 50.0565 39.6781 50.4092C39.8344 50.762 40.0522 51.0283 40.3315 51.2082C40.6109 51.3882 40.934 51.4781 41.301 51.4781C41.507 51.4781 41.6975 51.4509 41.8727 51.3965C42.0503 51.342 42.2077 51.2627 42.345 51.1585C42.4823 51.052 42.596 50.923 42.6859 50.7715C42.7783 50.6199 42.8422 50.4471 42.8777 50.253L44.4331 50.2601C44.3929 50.5939 44.2922 50.9159 44.1313 51.226C43.9726 51.5338 43.7584 51.8096 43.4885 52.0534C43.221 52.2949 42.9014 52.4867 42.5297 52.6287C42.1604 52.7684 41.7425 52.8382 41.2761 52.8382C40.6275 52.8382 40.0474 52.6914 39.5361 52.3979C39.0271 52.1043 38.6246 51.6794 38.3287 51.123C38.0351 50.5667 37.8884 49.8931 37.8884 49.1024C37.8884 48.3093 38.0375 47.6346 38.3358 47.0783C38.6341 46.5219 39.0389 46.0982 39.5503 45.807C40.0617 45.5134 40.6369 45.3666 41.2761 45.3666C41.6975 45.3666 42.0882 45.4258 42.448 45.5442C42.8102 45.6626 43.131 45.8354 43.4104 46.0626C43.6897 46.2876 43.917 46.5634 44.0922 46.8901C44.2697 47.2168 44.3834 47.5908 44.4331 48.0122ZM45.5357 52.7388V45.4661H47.0734V48.4668H50.1948V45.4661H51.7289V52.7388H50.1948V49.7345H47.0734V52.7388H45.5357ZM52.9967 52.7388V45.4661H54.5343V51.471H57.6522V52.7388H52.9967ZM65.0705 49.1024C65.0705 49.8955 64.9202 50.5702 64.6195 51.1266C64.3212 51.6829 63.914 52.1079 63.3979 52.4014C62.8842 52.6926 62.3066 52.8382 61.665 52.8382C61.0187 52.8382 60.4387 52.6914 59.9249 52.3979C59.4112 52.1043 59.0052 51.6794 58.7069 51.123C58.4086 50.5667 58.2594 49.8931 58.2594 49.1024C58.2594 48.3093 58.4086 47.6346 58.7069 47.0783C59.0052 46.5219 59.4112 46.0982 59.9249 45.807C60.4387 45.5134 61.0187 45.3666 61.665 45.3666C62.3066 45.3666 62.8842 45.5134 63.3979 45.807C63.914 46.0982 64.3212 46.5219 64.6195 47.0783C64.9202 47.6346 65.0705 48.3093 65.0705 49.1024ZM63.5116 49.1024C63.5116 48.5887 63.4346 48.1555 63.2808 47.8027C63.1292 47.45 62.915 47.1824 62.638 47.0001C62.361 46.8179 62.0367 46.7267 61.665 46.7267C61.2933 46.7267 60.969 46.8179 60.692 47.0001C60.415 47.1824 60.1996 47.45 60.0457 47.8027C59.8942 48.1555 59.8184 48.5887 59.8184 49.1024C59.8184 49.6162 59.8942 50.0494 60.0457 50.4021C60.1996 50.7549 60.415 51.0224 60.692 51.2047C60.969 51.387 61.2933 51.4781 61.665 51.4781C62.0367 51.4781 62.361 51.387 62.638 51.2047C62.915 51.0224 63.1292 50.7549 63.2808 50.4021C63.4346 50.0494 63.5116 49.6162 63.5116 49.1024ZM66.2096 52.7388V45.4661H71.1101V46.7338H67.7472V48.4668H70.858V49.7345H67.7472V51.471H71.1243V52.7388H66.2096Z" fill="white"/>
</g>
</svg>