<svg width="75" height="76" viewBox="0 0 75 76" fill="none" xmlns="http://www.w3.org/2000/svg">
<path d="M0 0H75V75H0V0Z" fill="black"/>
<path d="M24.4112 65.7955V75H18.5305V58.6364H24.1129V61.7472H24.2834C24.6385 60.7102 25.2635 59.897 26.1584 59.3075C27.0604 58.718 28.1115 58.4233 29.3118 58.4233C30.4695 58.4233 31.4744 58.6896 32.3267 59.2223C33.1861 59.7479 33.8501 60.4723 34.3189 61.3956C34.7947 62.3189 35.0291 63.3736 35.022 64.5597V75H29.1413V65.7955C29.1484 64.9858 28.9425 64.3501 28.5234 63.8885C28.1115 63.4268 27.5362 63.196 26.7976 63.196C26.3146 63.196 25.892 63.3026 25.5298 63.5156C25.1747 63.7216 24.9013 64.0199 24.7095 64.4105C24.5178 64.794 24.4183 65.2557 24.4112 65.7955ZM44.3086 75.2983C42.533 75.2983 41.0131 74.9467 39.7489 74.2436C38.4847 73.5334 37.5153 72.5462 36.8406 71.282C36.1658 70.0107 35.8285 68.5369 35.8285 66.8608C35.8285 65.1847 36.1658 63.7145 36.8406 62.4503C37.5153 61.179 38.4847 60.1918 39.7489 59.4886C41.0131 58.7784 42.533 58.4233 44.3086 58.4233C46.0842 58.4233 47.604 58.7784 48.8683 59.4886C50.1325 60.1918 51.1019 61.179 51.7766 62.4503C52.4514 63.7145 52.7887 65.1847 52.7887 66.8608C52.7887 68.5369 52.4514 70.0107 51.7766 71.282C51.1019 72.5462 50.1325 73.5334 48.8683 74.2436C47.604 74.9467 46.0842 75.2983 44.3086 75.2983ZM44.3512 70.9517C44.8484 70.9517 45.2781 70.7848 45.6403 70.451C46.0025 70.1172 46.283 69.6413 46.4819 69.0234C46.6808 68.4055 46.7802 67.6705 46.7802 66.8182C46.7802 65.9588 46.6808 65.2237 46.4819 64.6129C46.283 63.995 46.0025 63.5192 45.6403 63.1854C45.2781 62.8516 44.8484 62.6847 44.3512 62.6847C43.8256 62.6847 43.3746 62.8516 42.9982 63.1854C42.6218 63.5192 42.3342 63.995 42.1353 64.6129C41.9364 65.2237 41.837 65.9588 41.837 66.8182C41.837 67.6705 41.9364 68.4055 42.1353 69.0234C42.3342 69.6413 42.6218 70.1172 42.9982 70.451C43.3746 70.7848 43.8256 70.9517 44.3512 70.9517ZM63.4336 58.6364V62.8977H52.6523V58.6364H63.4336ZM54.7404 54.7159H60.6211V69.7372C60.6211 69.9645 60.6602 70.1562 60.7383 70.3125C60.8164 70.4616 60.9371 70.5753 61.1005 70.6534C61.2638 70.7244 61.4734 70.7599 61.729 70.7599C61.9066 70.7599 62.1126 70.7386 62.3469 70.696C62.5884 70.6534 62.766 70.6179 62.8796 70.5895L63.7319 74.723C63.4691 74.8011 63.0927 74.897 62.6026 75.0107C62.1197 75.1243 61.5444 75.1989 60.8768 75.2344C59.5273 75.3054 58.3945 75.1669 57.4783 74.8189C56.5621 74.4638 55.8732 73.9062 55.4116 73.1463C54.9499 72.3864 54.7262 71.4347 54.7404 70.2912V54.7159ZM74.0918 58.6364V62.8977H63.3105V58.6364H74.0918ZM65.3986 54.7159H71.2793V69.7372C71.2793 69.9645 71.3184 70.1562 71.3965 70.3125C71.4746 70.4616 71.5953 70.5753 71.7587 70.6534C71.9221 70.7244 72.1316 70.7599 72.3873 70.7599C72.5648 70.7599 72.7708 70.7386 73.0051 70.696C73.2466 70.6534 73.4242 70.6179 73.5378 70.5895L74.3901 74.723C74.1273 74.8011 73.7509 74.897 73.2608 75.0107C72.7779 75.1243 72.2026 75.1989 71.535 75.2344C70.1855 75.3054 69.0527 75.1669 68.1365 74.8189C67.2203 74.4638 66.5314 73.9062 66.0698 73.1463C65.6081 72.3864 65.3844 71.4347 65.3986 70.2912V54.7159Z" fill="white"/>
<path d="M8.60547 58.1989C7.42176 58.1989 6.4085 57.9645 5.5657 57.4957C4.72289 57.0223 4.07659 56.3641 3.62678 55.5213C3.17696 54.6738 2.95206 53.6913 2.95206 52.5739C2.95206 51.4564 3.17696 50.4763 3.62678 49.6335C4.07659 48.786 4.72289 48.1278 5.5657 47.6591C6.4085 47.1856 7.42176 46.9489 8.60547 46.9489C9.67554 46.9489 10.6012 47.143 11.3825 47.5312C12.1684 47.9148 12.7769 48.4593 13.2077 49.1648C13.6386 49.8655 13.8564 50.6894 13.8612 51.6364H10.2248C10.1727 51.0634 10.007 50.6278 9.72763 50.3295C9.45301 50.0265 9.09789 49.875 8.66229 49.875C8.32138 49.875 8.02308 49.9744 7.7674 50.1733C7.51172 50.3674 7.31286 50.6634 7.17081 51.0611C7.02876 51.4541 6.95774 51.9489 6.95774 52.5455C6.95774 53.142 7.02876 53.6392 7.17081 54.0369C7.31286 54.4299 7.51172 54.7259 7.7674 54.9247C8.02308 55.1188 8.32138 55.2159 8.66229 55.2159C8.95111 55.2159 9.20679 55.1496 9.42933 55.017C9.65187 54.8797 9.83179 54.6809 9.96911 54.4205C10.1112 54.1553 10.1964 53.8333 10.2248 53.4545H13.8612C13.8469 54.4157 13.6268 55.2538 13.2006 55.9688C12.7745 56.679 12.1708 57.2282 11.3896 57.6165C10.613 58.0047 9.68501 58.1989 8.60547 58.1989ZM18.3991 51.8636V58H14.4787V43.4545H18.2571V49.1648H18.3707C18.617 48.4687 19.0265 47.9266 19.5994 47.5384C20.1723 47.1454 20.8613 46.9489 21.6662 46.9489C22.438 46.9489 23.108 47.1241 23.6761 47.4744C24.2491 47.8248 24.6918 48.3078 25.0043 48.9233C25.3215 49.5388 25.4777 50.2443 25.473 51.0398V58H21.5526V51.8636C21.5573 51.3239 21.4223 50.9001 21.1477 50.5923C20.8778 50.2846 20.492 50.1307 19.9901 50.1307C19.6728 50.1307 19.3935 50.2017 19.152 50.3438C18.9152 50.4811 18.7306 50.6799 18.598 50.9403C18.4702 51.196 18.4039 51.5038 18.3991 51.8636ZM30.3288 43.4545V58H26.4084V43.4545H30.3288ZM36.582 58.1989C35.3983 58.1989 34.3851 57.9645 33.5423 57.4957C32.6995 57.0223 32.0531 56.3641 31.6033 55.5213C31.1535 54.6738 30.9286 53.6913 30.9286 52.5739C30.9286 51.4564 31.1535 50.4763 31.6033 49.6335C32.0531 48.786 32.6995 48.1278 33.5423 47.6591C34.3851 47.1856 35.3983 46.9489 36.582 46.9489C37.7657 46.9489 38.779 47.1856 39.6218 47.6591C40.4646 48.1278 41.1109 48.786 41.5607 49.6335C42.0105 50.4763 42.2354 51.4564 42.2354 52.5739C42.2354 53.6913 42.0105 54.6738 41.5607 55.5213C41.1109 56.3641 40.4646 57.0223 39.6218 57.4957C38.779 57.9645 37.7657 58.1989 36.582 58.1989ZM36.6104 55.3011C36.9419 55.3011 37.2283 55.1899 37.4698 54.9673C37.7113 54.7448 37.8983 54.4276 38.0309 54.0156C38.1635 53.6037 38.2298 53.1136 38.2298 52.5455C38.2298 51.9725 38.1635 51.4825 38.0309 51.0753C37.8983 50.6634 37.7113 50.3461 37.4698 50.1236C37.2283 49.901 36.9419 49.7898 36.6104 49.7898C36.2601 49.7898 35.9594 49.901 35.7085 50.1236C35.4575 50.3461 35.2657 50.6634 35.1332 51.0753C35.0006 51.4825 34.9343 51.9725 34.9343 52.5455C34.9343 53.1136 35.0006 53.6037 35.1332 54.0156C35.2657 54.4276 35.4575 54.7448 35.7085 54.9673C35.9594 55.1899 36.2601 55.3011 36.6104 55.3011ZM48.0536 58.1989C46.8888 58.1989 45.8851 57.9763 45.0423 57.5312C44.2042 57.0814 43.5579 56.4375 43.1033 55.5994C42.6535 54.7566 42.4286 53.7481 42.4286 52.5739C42.4286 51.447 42.6559 50.4621 43.1104 49.6193C43.565 48.7765 44.2066 48.1207 45.0352 47.652C45.8638 47.1832 46.8415 46.9489 47.9684 46.9489C48.7923 46.9489 49.538 47.0767 50.2056 47.3324C50.8732 47.5881 51.4438 47.9598 51.9173 48.4474C52.3907 48.9304 52.7553 49.5175 53.011 50.2088C53.2667 50.9001 53.3945 51.679 53.3945 52.5455V53.4545H43.6502V51.2955H49.7866C49.7818 50.983 49.7013 50.7083 49.5451 50.4716C49.3936 50.2301 49.1876 50.0431 48.9272 49.9105C48.6715 49.7732 48.3803 49.7045 48.0536 49.7045C47.7364 49.7045 47.4452 49.7732 47.18 49.9105C46.9149 50.0431 46.7018 50.2277 46.5408 50.4645C46.3846 50.7012 46.3017 50.9782 46.2923 51.2955V53.625C46.2923 53.9754 46.3656 54.2879 46.5124 54.5625C46.6592 54.8371 46.8699 55.0526 47.1445 55.2088C47.4192 55.3651 47.7506 55.4432 48.1388 55.4432C48.4087 55.4432 48.6549 55.4053 48.8775 55.3295C49.1048 55.2538 49.2989 55.1449 49.4599 55.0028C49.6209 54.8561 49.7392 54.6809 49.815 54.4773H53.3945C53.2714 55.2348 52.9802 55.893 52.521 56.4517C52.0617 57.0057 51.4532 57.4366 50.6957 57.7443C49.9428 58.0473 49.0621 58.1989 48.0536 58.1989Z" fill="white"/>
</svg>
