<svg width="330" height="215" viewBox="0 0 330 215" fill="none" xmlns="http://www.w3.org/2000/svg">
<rect x="232.5" y="117.5" width="95" height="95" rx="17.5" stroke="white" stroke-width="5"/>
<rect x="117.5" y="117.5" width="95" height="95" rx="17.5" stroke="white" stroke-width="5"/>
<rect x="2.5" y="117.5" width="95" height="95" rx="17.5" stroke="white" stroke-width="5"/>
<rect x="91.5" y="2.5" width="95" height="95" rx="17.5" stroke="white" stroke-width="5"/>
<path d="M38.5004 183H33.8839L47.2362 146.636H51.7816L65.1339 183H60.5174L49.6509 152.389H49.3668L38.5004 183ZM40.2049 168.795H58.8129V172.702H40.2049V168.795Z" fill="white"/>
<path d="M173.847 155.727C173.634 153.928 172.77 152.531 171.255 151.537C169.74 150.543 167.881 150.045 165.68 150.045C164.07 150.045 162.661 150.306 161.454 150.827C160.258 151.348 159.323 152.064 158.649 152.975C157.986 153.887 157.654 154.922 157.654 156.082C157.654 157.053 157.885 157.888 158.347 158.586C158.82 159.272 159.424 159.847 160.158 160.308C160.892 160.758 161.661 161.131 162.466 161.427C163.271 161.711 164.011 161.942 164.685 162.119L168.379 163.114C169.326 163.362 170.379 163.705 171.539 164.143C172.711 164.581 173.83 165.179 174.895 165.937C175.972 166.683 176.86 167.641 177.558 168.813C178.257 169.985 178.606 171.423 178.606 173.128C178.606 175.093 178.091 176.868 177.061 178.455C176.043 180.041 174.552 181.301 172.587 182.237C170.634 183.172 168.26 183.639 165.467 183.639C162.863 183.639 160.608 183.219 158.702 182.379C156.808 181.538 155.316 180.366 154.227 178.863C153.15 177.36 152.541 175.614 152.399 173.625H156.944C157.062 174.998 157.524 176.134 158.329 177.034C159.146 177.922 160.176 178.585 161.418 179.023C162.673 179.449 164.023 179.662 165.467 179.662C167.148 179.662 168.657 179.39 169.994 178.845C171.332 178.289 172.391 177.519 173.173 176.537C173.954 175.543 174.345 174.383 174.345 173.057C174.345 171.849 174.007 170.867 173.332 170.109C172.658 169.352 171.77 168.736 170.669 168.263C169.568 167.789 168.379 167.375 167.1 167.02L162.626 165.741C159.785 164.925 157.536 163.759 155.879 162.244C154.221 160.728 153.393 158.746 153.393 156.295C153.393 154.259 153.943 152.484 155.044 150.969C156.157 149.442 157.648 148.258 159.519 147.418C161.401 146.565 163.502 146.139 165.822 146.139C168.166 146.139 170.249 146.559 172.072 147.4C173.895 148.228 175.339 149.365 176.404 150.809C177.481 152.253 178.05 153.893 178.109 155.727H173.847Z" fill="white"/>
<path d="M126.778 68L116.835 31.6364H121.309L128.909 61.2528H129.264L137.005 31.6364H141.977L149.718 61.2528H150.074L157.673 31.6364H162.147L152.204 68H147.659L139.633 39.0227H139.349L131.324 68H126.778Z" fill="white"/>
<path d="M278.156 183H266.935V146.636H278.653C282.181 146.636 285.199 147.364 287.709 148.82C290.218 150.264 292.142 152.342 293.479 155.053C294.817 157.751 295.486 160.983 295.486 164.747C295.486 168.535 294.811 171.796 293.462 174.531C292.112 177.253 290.147 179.348 287.567 180.816C284.986 182.272 281.849 183 278.156 183ZM271.338 179.094H277.872C280.879 179.094 283.371 178.514 285.347 177.354C287.324 176.194 288.798 174.542 289.768 172.4C290.739 170.257 291.224 167.706 291.224 164.747C291.224 161.812 290.745 159.284 289.786 157.165C288.827 155.035 287.395 153.401 285.489 152.265C283.584 151.117 281.21 150.543 278.369 150.543H271.338V179.094Z" fill="white"/>
</svg>
